<svg xmlns="http://www.w3.org/2000/svg" viewBox="0 0 1200 600" fill="none">
  <defs>
    <linearGradient id="bg" x1="0%" y1="0%" x2="100%" y2="100%">
      <stop offset="0%" stop-color="#f0fdfa"/>
      <stop offset="50%" stop-color="#ecfeff"/>
      <stop offset="100%" stop-color="#f0f9ff"/>
    </linearGradient>
    <linearGradient id="qrGrad" x1="0%" y1="0%" x2="100%" y2="100%">
      <stop offset="0%" stop-color="#0d9488"/>
      <stop offset="100%" stop-color="#0891b2"/>
    </linearGradient>
    <linearGradient id="glow" x1="50%" y1="0%" x2="50%" y2="100%">
      <stop offset="0%" stop-color="#0d9488" stop-opacity="0.15"/>
      <stop offset="100%" stop-color="#0d9488" stop-opacity="0"/>
    </linearGradient>
    <filter id="softShadow" x="-20%" y="-20%" width="140%" height="140%">
      <feDropShadow dx="0" dy="8" stdDeviation="16" flood-color="#0d9488" flood-opacity="0.08"/>
    </filter>
  </defs>
  <rect width="1200" height="600" fill="url(#bg)"/>
  <!-- Subtle grid pattern -->
  <g stroke="#0d9488" stroke-opacity="0.04" stroke-width="1">
    <line x1="0" y1="100" x2="1200" y2="100"/>
    <line x1="0" y1="200" x2="1200" y2="200"/>
    <line x1="0" y1="300" x2="1200" y2="300"/>
    <line x1="0" y1="400" x2="1200" y2="400"/>
    <line x1="0" y1="500" x2="1200" y2="500"/>
    <line x1="200" y1="0" x2="200" y2="600"/>
    <line x1="400" y1="0" x2="400" y2="600"/>
    <line x1="600" y1="0" x2="600" y2="600"/>
    <line x1="800" y1="0" x2="800" y2="600"/>
    <line x1="1000" y1="0" x2="1000" y2="600"/>
  </g>
  <!-- Stylized QR code - center, modern -->
  <g transform="translate(480, 120)" filter="url(#softShadow)">
    <rect width="240" height="240" rx="24" fill="white" stroke="url(#qrGrad)" stroke-width="2" stroke-opacity="0.3"/>
    <!-- QR pattern - abstract representation -->
    <g fill="url(#qrGrad)" fill-opacity="0.9">
      <!-- Corner finders -->
      <rect x="20" y="20" width="56" height="56" rx="8"/>
      <rect x="32" y="32" width="32" height="32" rx="4" fill="white"/>
      <rect x="38" y="38" width="20" height="20" rx="2" fill="url(#qrGrad)"/>
      <rect x="164" y="20" width="56" height="56" rx="8"/>
      <rect x="176" y="32" width="32" height="32" rx="4" fill="white"/>
      <rect x="182" y="38" width="20" height="20" rx="2" fill="url(#qrGrad)"/>
      <rect x="20" y="164" width="56" height="56" rx="8"/>
      <rect x="32" y="176" width="32" height="32" rx="4" fill="white"/>
      <rect x="38" y="182" width="20" height="20" rx="2" fill="url(#qrGrad)"/>
      <!-- Data modules -->
      <rect x="90" y="20" width="16" height="16" rx="2"/>
      <rect x="114" y="20" width="16" height="16" rx="2"/>
      <rect x="138" y="20" width="16" height="16" rx="2"/>
      <rect x="20" y="90" width="16" height="16" rx="2"/>
      <rect x="44" y="90" width="16" height="16" rx="2"/>
      <rect x="90" y="90" width="16" height="16" rx="2"/>
      <rect x="138" y="90" width="16" height="16" rx="2"/>
      <rect x="20" y="114" width="16" height="16" rx="2"/>
      <rect x="68" y="114" width="16" height="16" rx="2"/>
      <rect x="90" y="114" width="16" height="16" rx="2"/>
      <rect x="114" y="114" width="16" height="16" rx="2"/>
      <rect x="162" y="114" width="16" height="16" rx="2"/>
      <rect x="44" y="138" width="16" height="16" rx="2"/>
      <rect x="90" y="138" width="16" height="16" rx="2"/>
      <rect x="114" y="138" width="16" height="16" rx="2"/>
      <rect x="138" y="138" width="16" height="16" rx="2"/>
      <rect x="20" y="162" width="16" height="16" rx="2"/>
      <rect x="90" y="162" width="16" height="16" rx="2"/>
      <rect x="138" y="162" width="16" height="16" rx="2"/>
      <rect x="90" y="186" width="16" height="16" rx="2"/>
      <rect x="114" y="186" width="16" height="16" rx="2"/>
      <rect x="162" y="186" width="16" height="16" rx="2"/>
      <rect x="90" y="210" width="16" height="16" rx="2"/>
      <rect x="138" y="210" width="16" height="16" rx="2"/>
    </g>
  </g>
  <!-- Scan line effect -->
  <rect x="480" y="120" width="240" height="4" rx="2" fill="url(#qrGrad)" fill-opacity="0.4">
    <animate attributeName="y" values="120;340;120" dur="3s" repeatCount="indefinite"/>
  </rect>
  <!-- Subtle glow behind QR -->
  <ellipse cx="600" cy="360" rx="200" ry="80" fill="url(#glow)"/>
</svg>
