<svg xmlns="http://www.w3.org/2000/svg" viewBox="0 0 240 240" fill="none">
  <defs>
    <linearGradient id="qrGrad" x1="0%" y1="0%" x2="100%" y2="100%">
      <stop offset="0%" stop-color="#0c4a6e"/>
      <stop offset="100%" stop-color="#0e7490"/>
    </linearGradient>
  </defs>
  <!-- QR pattern only - no white rectangle, transparent background -->
  <g fill="url(#qrGrad)" fill-opacity="0.95">
    <!-- Corner finders -->
    <rect x="20" y="20" width="56" height="56" rx="8"/>
    <rect x="32" y="32" width="32" height="32" rx="4" fill="none"/>
    <rect x="38" y="38" width="20" height="20" rx="2" fill="url(#qrGrad)"/>
    <rect x="164" y="20" width="56" height="56" rx="8"/>
    <rect x="176" y="32" width="32" height="32" rx="4" fill="none"/>
    <rect x="182" y="38" width="20" height="20" rx="2" fill="url(#qrGrad)"/>
    <rect x="20" y="164" width="56" height="56" rx="8"/>
    <rect x="32" y="176" width="32" height="32" rx="4" fill="none"/>
    <rect x="38" y="182" width="20" height="20" rx="2" fill="url(#qrGrad)"/>
    <!-- Data modules -->
    <rect x="90" y="20" width="16" height="16" rx="2"/>
    <rect x="114" y="20" width="16" height="16" rx="2"/>
    <rect x="138" y="20" width="16" height="16" rx="2"/>
    <rect x="20" y="90" width="16" height="16" rx="2"/>
    <rect x="44" y="90" width="16" height="16" rx="2"/>
    <rect x="90" y="90" width="16" height="16" rx="2"/>
    <rect x="138" y="90" width="16" height="16" rx="2"/>
    <rect x="20" y="114" width="16" height="16" rx="2"/>
    <rect x="68" y="114" width="16" height="16" rx="2"/>
    <rect x="90" y="114" width="16" height="16" rx="2"/>
    <rect x="114" y="114" width="16" height="16" rx="2"/>
    <rect x="162" y="114" width="16" height="16" rx="2"/>
    <rect x="44" y="138" width="16" height="16" rx="2"/>
    <rect x="90" y="138" width="16" height="16" rx="2"/>
    <rect x="114" y="138" width="16" height="16" rx="2"/>
    <rect x="138" y="138" width="16" height="16" rx="2"/>
    <rect x="20" y="162" width="16" height="16" rx="2"/>
    <rect x="90" y="162" width="16" height="16" rx="2"/>
    <rect x="138" y="162" width="16" height="16" rx="2"/>
    <rect x="90" y="186" width="16" height="16" rx="2"/>
    <rect x="114" y="186" width="16" height="16" rx="2"/>
    <rect x="162" y="186" width="16" height="16" rx="2"/>
    <rect x="90" y="210" width="16" height="16" rx="2"/>
    <rect x="138" y="210" width="16" height="16" rx="2"/>
  </g>
</svg>
